<svg width="256" height="256" viewBox="0 0 256 256" fill="none" xmlns="http://www.w3.org/2000/svg">
<path d="M256 128.688C256 129.992 256 131.298 255.929 132.567H193.677V129.746H133.767C133.767 129.146 133.767 128.547 133.767 127.982C133.767 127.418 133.767 126.783 133.767 126.219H193.677V123.398H255.893C255.964 125.161 256 126.924 256 128.688ZM132.703 115.921L191.334 108.691L191.689 111.513L253.622 103.895C253.019 100.862 252.309 97.8647 251.528 94.9023L190.554 102.414L190.909 105.235L131.993 112.5C132.241 113.664 132.49 114.793 132.703 115.956V115.921ZM129.65 104.565L185.691 90.5646L186.366 93.3153L245.849 78.4681C244.643 75.6116 243.294 72.7549 241.91 70.0042L184.165 84.4283L184.84 87.179L128.337 101.321C128.799 102.414 129.224 103.507 129.65 104.636V104.565ZM124.682 93.9502L177.067 74.1655L178.061 76.8105L233.498 55.8623C231.688 53.2173 229.807 50.678 227.82 48.1741L174.831 68.1702L175.825 70.8152L122.801 90.8467C123.439 91.8341 124.078 92.8568 124.682 93.9149V93.9502ZM117.796 84.1108L164.077 59.9885L165.39 62.4924L216.569 35.7955C214.227 33.5032 211.778 31.3521 209.258 29.236L161.167 54.3104L162.48 56.8497L115.418 81.3952C116.235 82.2769 117.051 83.1585 117.832 84.1108H117.796ZM106.652 73.4956L148.567 46.8692L150.093 49.2675L196.339 19.8551C193.429 17.9859 190.447 16.2931 187.395 14.6709L145.196 41.5089L146.722 43.9068L103.635 71.3091C104.7 72.0143 105.693 72.7549 106.723 73.5309L106.652 73.4956ZM96.7497 67.3239L131.851 38.5464L133.661 40.7329L173.198 8.28764C169.827 7.01804 166.384 5.85426 162.906 4.86679L127.84 33.6443L129.65 35.8308L93.2717 65.6663C94.4429 66.1955 95.614 66.7244 96.7852 67.3239H96.7497ZM83.6178 62.2103L111.337 34.5966L113.324 36.6067L148.603 1.587C144.77 0.952197 140.901 0.493732 136.961 0.211599L106.9 30.1176L108.888 32.1277L79.6074 61.258C80.956 61.5401 82.3048 61.8575 83.6178 62.2103ZM68.2857 59.9178L90.3967 33.1154L92.5972 34.9138L121.381 0C117.015 0.211599 112.686 0.634798 108.426 1.2696L85.4991 29.0596L87.6993 30.8582L63.7426 59.8828C64.4169 59.8828 65.0914 59.8474 65.7657 59.8474C66.6174 59.8474 67.4693 59.8474 68.2857 59.8828V59.9178ZM55.0472 60.6938L72.0832 34.3145L74.4611 35.8661L95.0461 3.98513C90.3259 5.21946 85.7475 6.70065 81.2399 8.4287L66.7595 30.8936L69.1374 32.4452L50.256 61.6812C51.8174 61.2933 53.4147 61.0112 55.0472 60.7291V60.6938ZM40.3184 64.7846L52.5628 41.826L55.0472 43.1662L71.2668 12.7665C66.0497 15.3057 61.0452 18.1976 56.2539 21.3715L46.9198 38.8285L49.4396 40.1687L35.0302 67.2182C36.7338 66.3365 38.5082 65.5606 40.2828 64.82L40.3184 64.7846ZM29.7417 70.1803L34.9591 55.3684L37.621 56.3208L47.736 27.5784C42.5896 31.6695 37.7628 36.1129 33.3266 40.9093L28.9611 53.2877L31.623 54.24L24.8085 73.6013C26.4056 72.4022 28.0381 71.2737 29.7065 70.2157L29.7417 70.1803ZM16.752 80.7956L19.0589 70.0393L21.8272 70.6388L26.4767 48.9853C21.6143 55.1921 17.2844 61.8222 13.5932 68.8755L15.6517 69.334L11.4283 87.1437C13.0609 84.9219 14.8709 82.8411 16.7875 80.831L16.752 80.7956ZM7.20477 93.3507V79.103C3.7621 88.2017 1.31318 99.5223 0 110.631C1.59712 104.46 4.04602 98.676 7.20477 93.3507ZM0.106474 145.686C1.45515 155.173 3.83308 164.307 7.13379 172.983V162.473C4.08152 157.289 1.70359 151.646 0.106474 145.686ZM11.8541 169.526L15.5453 186.736L13.4868 187.195C17.1779 194.248 21.5078 200.878 26.3701 207.085L21.7208 185.432L18.9524 186.031L16.61 175.134C14.9064 173.37 13.3093 171.501 11.8187 169.526H11.8541ZM24.7021 182.293L31.5519 201.76L28.8901 202.712L33.2555 215.091C37.7273 219.887 42.5544 224.331 47.6652 228.422L37.5499 199.679L34.8881 200.632L29.6709 185.749C27.9673 184.691 26.3346 183.527 24.7375 182.328L24.7021 182.293ZM34.9236 188.747L49.3688 215.867L46.8488 217.207L56.1829 234.664C60.9744 237.838 65.9786 240.73 71.196 243.269L54.9762 212.869L52.4564 214.209L40.1762 191.18C38.3663 190.439 36.6272 189.628 34.8881 188.782L34.9236 188.747ZM50.1494 194.354L69.0308 223.625L66.6529 225.177L81.1336 247.642C85.6054 249.37 90.2193 250.851 94.9398 252.086L74.3547 220.205L71.9766 221.756L54.9054 195.342C53.3081 195.095 51.6756 194.777 50.1138 194.389L50.1494 194.354ZM63.6363 196.117L87.593 225.142L85.3925 226.94L108.32 254.73C112.579 255.365 116.873 255.788 121.274 256L92.4908 221.086L90.2903 222.885L68.1791 196.082C67.3982 196.117 66.5821 196.117 65.7657 196.117C65.0559 196.117 64.3461 196.117 63.6363 196.082V196.117ZM79.5363 194.742L108.817 223.872L106.829 225.882L136.891 255.788C140.83 255.506 144.699 255.013 148.532 254.413L113.324 219.358L111.337 221.368L83.6178 193.79C82.3048 194.142 80.956 194.46 79.6074 194.742H79.5363ZM93.1651 190.404L129.508 220.24L127.698 222.426L162.764 251.204C166.242 250.216 169.685 249.052 173.056 247.783L133.483 215.338L131.673 217.524L96.6078 188.747C95.4719 189.346 94.3008 189.911 93.094 190.404H93.1651ZM103.493 184.726L146.544 212.093L145.018 214.491L187.217 241.329C190.27 239.707 193.251 237.979 196.161 236.145L149.916 206.733L148.39 209.131L106.545 182.54C105.516 183.316 104.522 184.056 103.458 184.762L103.493 184.726ZM115.347 174.64L162.338 199.115L161.025 201.654L209.116 226.729C211.636 224.648 214.085 222.461 216.427 220.169L165.248 193.473L163.935 196.012L117.725 171.924C116.944 172.841 116.164 173.758 115.312 174.64H115.347ZM122.801 165.153L175.754 185.149L174.76 187.794L227.749 207.791C229.736 205.322 231.617 202.747 233.427 200.102L177.99 179.154L176.996 181.799L124.682 162.05C124.078 163.073 123.475 164.095 122.801 165.118V165.153ZM128.337 154.75L184.768 168.856L184.094 171.607L241.839 186.031C243.258 183.28 244.572 180.424 245.814 177.567L186.33 162.72L185.656 165.471L129.686 151.505C129.295 152.634 128.834 153.727 128.373 154.82L128.337 154.75ZM131.993 143.57L190.802 150.8L190.447 153.621L251.422 161.133C252.202 158.171 252.912 155.173 253.516 152.14L191.583 144.522L191.228 147.344L132.667 140.114C132.454 141.278 132.206 142.442 131.957 143.57H131.993Z" fill="black"/>
</svg>
